#
# Wavefront OBJ file: Crate.obj
#

mtllib crate.mtl

v  -1.0 1.0 1.0 
v  -1.0 -1.0 1.0 
v  1.0 -1.0 1.0 
v  1.0 1.0 1.0 
v  -1.0 1.0 -1.0 
v  -1.0 -1.0 -1.0 
v  1.0 -1.0 -1.0 
v  1.0 1.0 -1.0 
# 8 vertices

vt 1.000000 0.0 0.0
vt 1.000000 1.000000 0.0
vt 0.0 1.000000 0.0
vt 0.0 0.0 0.0
# 4 texture vertices

vn  -0.577350 -0.577350 -0.577350 
vn  -0.577350 -0.577350 0.577350 
vn  -0.577350 0.577350 0.577350 
vn  -0.577350 0.577350 -0.577350 
vn  0.577350 -0.577350 -0.577350 
vn  0.577350 -0.577350 0.577350 
vn  0.577350 0.577350 -0.577350 
vn  0.577350 0.577350 0.577350 
# 8 normals

usemtl _Crate1Material

f 6/1/1 2/2/2 1/3/3
f 1/3/3 5/4/4 6/1/1
f 7/1/5 3/2/6 2/3/2
f 2/3/2 6/4/1 7/1/5
f 8/1/7 4/2/8 3/3/6
f 3/3/6 7/4/5 8/1/7
f 5/1/4 1/2/3 4/3/8
f 4/3/8 8/4/7 5/1/4
f 2/1/2 3/2/6 4/3/8
f 4/3/8 1/4/3 2/1/2
f 7/1/5 6/2/1 5/3/4
f 5/3/4 8/4/7 7/1/5
# 12 polygons
