#
# Wavefront OBJ file: woodcrate.obj
#

mtllib woodcrate.mtl

v  1.004383 -1.004382 -1.004383 
v  1.004383 -1.004383 1.004382 
v  1.004382 1.004383 -1.004383 
v  1.004383 1.004383 1.004383 
v  -1.004383 -1.004383 -1.004383 
v  -1.004382 -1.004383 1.004383 
v  -1.004383 1.004383 -1.004382 
v  -1.004383 1.004382 1.004383 
v  1.004383 -0.765275 -0.765276 
v  1.004383 0.765276 -0.765276 
v  1.004383 0.765276 0.765276 
v  1.004383 -0.765276 0.765275 
v  -1.004383 -0.765276 -0.765276 
v  -1.004383 -0.765276 0.765276 
v  -1.004383 0.765275 0.765276 
v  -1.004383 0.765276 -0.765275 
v  0.765276 -1.004382 -0.765276 
v  0.765276 -1.004383 0.765275 
v  -0.765275 -1.004383 0.765276 
v  -0.765276 -1.004383 -0.765276 
v  0.765276 -0.765276 1.004382 
v  0.765276 0.765276 1.004383 
v  -0.765276 0.765275 1.004383 
v  -0.765275 -0.765276 1.004383 
v  0.765276 1.004383 0.765276 
v  0.765275 1.004383 -0.765276 
v  -0.765276 1.004383 -0.765275 
v  -0.765276 1.004382 0.765276 
v  0.765275 0.765276 -1.004383 
v  0.765276 -0.765275 -1.004383 
v  -0.765276 -0.765276 -1.004383 
v  -0.765276 0.765276 -1.004382 
v  0.925329 -0.765275 -0.765276 
v  0.925329 0.765276 -0.765276 
v  0.925329 0.765276 0.765276 
v  0.925329 -0.765276 0.765275 
v  -0.925329 -0.765276 -0.765276 
v  -0.925329 -0.765276 0.765276 
v  -0.925329 0.765275 0.765276 
v  -0.925329 0.765276 -0.765275 
v  0.765276 -0.925329 -0.765276 
v  0.765276 -0.925329 0.765275 
v  -0.765275 -0.925329 0.765276 
v  -0.765276 -0.925329 -0.765276 
v  0.765276 -0.765276 0.925329 
v  0.765276 0.765276 0.925329 
v  -0.765276 0.765275 0.925329 
v  -0.765275 -0.765276 0.925329 
v  0.765276 0.925329 0.765276 
v  0.765276 0.925329 -0.765276 
v  -0.765276 0.925329 -0.765275 
v  -0.765276 0.925329 0.765276 
v  0.765276 0.765276 -0.925329 
v  0.765276 -0.765275 -0.925329 
v  -0.765276 -0.765276 -0.925329 
v  -0.765276 0.765276 -0.925329 
v  0.907129 -0.702804 -0.894538 
v  0.907129 -0.904409 -0.695981 
v  0.907129 0.870984 0.703401 
v  0.907129 0.669379 0.901957 
v  0.991083 -0.702804 -0.894538 
v  0.991083 -0.904409 -0.695981 
v  0.991083 0.870984 0.703401 
v  0.991083 0.669379 0.901957 
v  0.922886 -0.702804 -0.900409 
v  0.724329 -0.904409 -0.900409 
v  -0.675052 0.870984 -0.900408 
v  -0.873610 0.669381 -0.900408 
v  0.922886 -0.702804 -0.984362 
v  0.724329 -0.904409 -0.984362 
v  -0.675052 0.870984 -0.984362 
v  -0.873610 0.669381 -0.984362 
v  0.922886 -0.897442 0.698259 
v  0.724329 -0.897442 0.899863 
v  -0.675052 -0.897443 -0.875530 
v  -0.873610 -0.897443 -0.673925 
v  0.922886 -0.981396 0.698259 
v  0.724329 -0.981396 0.899863 
v  -0.675052 -0.981396 -0.875530 
v  -0.873610 -0.981396 -0.673925 
v  0.916455 0.897169 -0.711049 
v  0.717897 0.897169 -0.912653 
v  -0.681483 0.897169 0.862740 
v  -0.880040 0.897169 0.661136 
v  0.916455 0.981123 -0.711049 
v  0.717897 0.981123 -0.912653 
v  -0.681483 0.981123 0.862740 
v  -0.880040 0.981123 0.661136 
v  0.916455 0.702531 0.887618 
v  0.717897 0.904135 0.887618 
v  -0.681483 -0.871257 0.887618 
v  -0.880040 -0.669654 0.887618 
v  0.916455 0.702531 0.971571 
v  0.717897 0.904135 0.971571 
v  -0.681483 -0.871257 0.971571 
v  -0.880040 -0.669654 0.971571 
v  -0.889076 -0.702804 0.901957 
v  -0.889076 -0.904409 0.703401 
v  -0.889076 0.870984 -0.695981 
v  -0.889076 0.669379 -0.894538 
v  -0.973029 -0.702804 0.901957 
v  -0.973029 -0.904409 0.703401 
v  -0.973030 0.870984 -0.695981 
v  -0.973030 0.669379 -0.894538 
# 104 vertices

vt 0.119412 0.880588 0.0
vt 0.119412 0.119412 0.0
vt 0.880587 0.119412 0.0
vt 0.880588 0.880587 0.0
vt 0.999500 0.000500 0.0
vt 0.999501 0.999500 0.0
vt 0.000500 0.999500 0.0
vt 0.000500 0.000500 0.0
vt 0.880588 0.039815 0.0
vt 0.119413 0.039815 0.0
vt 0.119413 0.000500 0.0
vt 0.880588 0.000500 0.0
vt 0.119413 0.960185 0.0
vt 0.880588 0.960185 0.0
vt 0.880588 0.999500 0.0
vt 0.119412 0.999500 0.0
vt 0.960185 0.880588 0.0
vt 0.960185 0.119412 0.0
vt 0.999500 0.119412 0.0
vt 0.999500 0.880588 0.0
vt 0.039815 0.119412 0.0
vt 0.039815 0.880587 0.0
vt 0.000500 0.880587 0.0
vt 0.000500 0.119412 0.0
vt 0.782891 0.123525 0.0
vt 0.126006 0.779269 0.0
vt 0.218604 0.873136 0.0
vt 0.877005 0.219238 0.0
vt 0.050848 0.110525 0.0
vt 0.095000 0.110525 0.0
vt 0.095000 1.000000 0.0
vt 0.050848 1.000000 0.0
vt 0.050848 0.889475 0.0
vt 0.095000 0.889475 0.0
vt 0.095000 0.0 0.0
vt 0.050848 0.0 0.0
# 36 texture vertices

vn  1.0 0.0 0.0 
vn  -1.0 0.0 0.0 
vn  0.0 -1.0 0.0 
vn  0.0 0.0 1.0 
vn  0.0 1.0 0.0 
vn  0.0 0.0 -1.0 
vn  0.0 -0.712470 0.701702 
vn  0.0 0.712470 -0.701702 
vn  -0.701703 -0.712470 0.0 
vn  0.701703 0.712470 0.0 
vn  -0.701703 0.0 0.712470 
vn  0.701703 0.0 -0.712470 
vn  -0.701703 0.0 -0.712470 
vn  0.701703 0.0 0.712470 
vn  -0.701703 0.712470 0.0 
vn  0.701703 -0.712470 0.0 
vn  0.0 -0.712470 -0.701702 
vn  0.0 0.712470 0.701702 
# 18 normals

usemtl _woodcrateMaterial

g default001

s off
f 35/1/1 36/2/1 33/3/1
f 33/3/1 34/4/1 35/1/1
f 39/4/2 40/1/2 37/2/2
f 37/2/2 38/3/2 39/4/2
f 43/4/3 44/1/3 41/2/3
f 41/2/3 42/3/3 43/4/3
f 47/4/4 48/1/4 45/2/4
f 45/2/4 46/3/4 47/4/4
f 51/4/5 52/1/5 49/2/5
f 49/2/5 50/3/5 51/4/5
f 55/4/6 56/1/6 53/2/6
f 53/2/6 54/3/6 55/4/6
f 10/4/1 9/3/1 1/5/1
f 1/5/1 3/6/1 10/4/1
f 11/1/1 10/4/1 3/6/1
f 3/6/1 4/7/1 11/1/1
f 12/2/1 11/1/1 4/7/1
f 4/7/1 2/8/1 12/2/1
f 9/3/1 12/2/1 2/8/1
f 2/8/1 1/5/1 9/3/1
f 14/3/2 13/2/2 5/8/2
f 5/8/2 6/5/2 14/3/2
f 15/4/2 14/3/2 6/5/2
f 6/5/2 8/6/2 15/4/2
f 16/1/2 15/4/2 8/6/2
f 8/6/2 7/7/2 16/1/2
f 13/2/2 16/1/2 7/7/2
f 7/7/2 5/8/2 13/2/2
f 18/3/3 17/2/3 1/8/3
f 1/8/3 2/5/3 18/3/3
f 19/4/3 18/3/3 2/5/3
f 2/5/3 6/6/3 19/4/3
f 20/1/3 19/4/3 6/6/3
f 6/6/3 5/7/3 20/1/3
f 17/2/3 20/1/3 5/7/3
f 5/7/3 1/8/3 17/2/3
f 22/3/4 21/2/4 2/8/4
f 2/8/4 4/5/4 22/3/4
f 23/4/4 22/3/4 4/5/4
f 4/5/4 8/6/4 23/4/4
f 24/1/4 23/4/4 8/6/4
f 8/6/4 6/7/4 24/1/4
f 21/2/4 24/1/4 6/7/4
f 6/7/4 2/8/4 21/2/4
f 26/3/5 25/2/5 4/8/5
f 4/8/5 3/5/5 26/3/5
f 27/4/5 26/3/5 3/5/5
f 3/5/5 7/6/5 27/4/5
f 28/1/5 27/4/5 7/6/5
f 7/6/5 8/7/5 28/1/5
f 25/2/5 28/1/5 8/7/5
f 8/7/5 4/8/5 25/2/5
f 30/3/6 29/2/6 3/8/6
f 3/8/6 1/5/6 30/3/6
f 31/4/6 30/3/6 1/5/6
f 1/5/6 5/6/6 31/4/6
f 32/1/6 31/4/6 5/6/6
f 5/6/6 7/7/6 32/1/6
f 29/2/6 32/1/6 7/7/6
f 7/7/6 3/8/6 29/2/6
f 34/9/4 33/10/4 9/11/4
f 9/11/4 10/12/4 34/9/4
f 35/9/3 34/10/3 10/11/3
f 10/11/3 11/12/3 35/9/3
f 36/9/6 35/10/6 11/11/6
f 11/11/6 12/12/6 36/9/6
f 33/9/5 36/10/5 12/11/5
f 12/11/5 9/12/5 33/9/5
f 38/13/5 37/14/5 13/15/5
f 13/15/5 14/16/5 38/13/5
f 39/13/6 38/14/6 14/15/6
f 14/15/6 15/16/6 39/13/6
f 40/13/3 39/14/3 15/15/3
f 15/15/3 16/16/3 40/13/3
f 37/13/4 40/14/4 16/15/4
f 16/15/4 13/16/4 37/13/4
f 42/9/2 41/10/2 17/11/2
f 17/11/2 18/12/2 42/9/2
f 43/17/6 42/18/6 18/19/6
f 18/19/6 19/20/6 43/17/6
f 44/9/1 43/10/1 19/11/1
f 19/11/1 20/12/1 44/9/1
f 41/21/4 44/22/4 20/23/4
f 20/23/4 17/24/4 41/21/4
f 46/17/2 45/18/2 21/19/2
f 21/19/2 22/20/2 46/17/2
f 47/17/3 46/18/3 22/19/3
f 22/19/3 23/20/3 47/17/3
f 48/21/1 47/22/1 23/23/1
f 23/23/1 24/24/1 48/21/1
f 45/21/5 48/22/5 24/23/5
f 24/23/5 21/24/5 45/21/5
f 50/13/2 49/14/2 25/15/2
f 25/15/2 26/16/2 50/13/2
f 51/17/4 50/18/4 26/19/4
f 26/19/4 27/20/4 51/17/4
f 52/13/1 51/14/1 27/15/1
f 27/15/1 28/16/1 52/13/1
f 49/21/6 52/22/6 28/23/6
f 28/23/6 25/24/6 49/21/6
f 54/21/2 53/22/2 29/23/2
f 29/23/2 30/24/2 54/21/2
f 55/17/5 54/18/5 30/19/5
f 30/19/5 31/20/5 55/17/5
f 56/17/1 55/18/1 31/19/1
f 31/19/1 32/20/1 56/17/1
f 53/21/3 56/22/3 32/23/3
f 32/23/3 29/24/3 53/21/3
f 61/25/1 63/26/1 64/27/1
f 64/27/1 62/28/1 61/25/1
f 58/29/7 62/30/7 64/31/7
f 64/31/7 60/32/7 58/29/7
f 59/33/8 63/34/8 61/35/8
f 61/35/8 57/36/8 59/33/8
f 72/27/6 71/26/6 69/25/6
f 69/25/6 70/28/6 72/27/6
f 72/31/9 70/30/9 66/29/9
f 66/29/9 68/32/9 72/31/9
f 69/35/10 71/34/10 67/33/10
f 67/33/10 65/36/10 69/35/10
f 80/27/3 79/26/3 77/25/3
f 77/25/3 78/28/3 80/27/3
f 80/31/11 78/30/11 74/29/11
f 74/29/11 76/32/11 80/31/11
f 77/35/12 79/34/12 75/33/12
f 75/33/12 73/36/12 77/35/12
f 88/27/5 87/26/5 85/25/5
f 85/25/5 86/28/5 88/27/5
f 88/31/13 86/30/13 82/29/13
f 82/29/13 84/32/13 88/31/13
f 85/35/14 87/34/14 83/33/14
f 83/33/14 81/36/14 85/35/14
f 96/27/4 95/26/4 93/25/4
f 93/25/4 94/28/4 96/27/4
f 96/31/15 94/30/15 90/29/15
f 90/29/15 92/32/15 96/31/15
f 93/35/16 95/34/16 91/33/16
f 91/33/16 89/36/16 93/35/16
f 101/25/2 103/26/2 104/27/2
f 104/27/2 102/28/2 101/25/2
f 98/29/17 102/30/17 104/31/17
f 104/31/17 100/32/17 98/29/17
f 99/33/18 103/34/18 101/35/18
f 101/35/18 97/36/18 99/33/18
# 144 polygons
